<?xml version="1.0" encoding="UTF-8" standalone="no"?>
<svg width="100px" height="31px" viewBox="0 0 100 31" version="1.1" xmlns="http://www.w3.org/2000/svg" xmlns:xlink="http://www.w3.org/1999/xlink">
    <!-- Generator: Sketch 3.7.2 (28276) - http://www.bohemiancoding.com/sketch -->
    <title>Borde Naranja</title>
    <desc>Created with Sketch.</desc>
    <defs></defs>
    <g id="User" stroke="none" stroke-width="1" fill="none" fill-rule="evenodd">
        <g id="Profile" transform="translate(-21.000000, -12.000000)">
            <g id="Borde-Naranja" transform="translate(21.000000, 12.000000)">
                <g id="Group">
                    <g id="XMLID_3_">
                        <path d="M93.068254,9.61657848 L99.8784832,30.7539683 C99.8784832,30.7539683 82.0269841,22.8770723 65.9165785,20.642328 C65.9165785,20.642328 58.6504409,19.5195767 49.9945326,19.3160494 C49.978836,19.3160494 49.9650794,19.3160494 49.9495591,19.317284 L49.9495591,7.11234568 L92.608642,4.78024691 L99.8698413,3.08059965 L93.068254,9.61657848 L93.068254,9.61657848 Z" id="Shape" fill="#E28B55"></path>
                        <path d="M99.8698413,3.08059965 L92.608642,4.78024691 L49.9495591,7.11234568 L49.9495591,19.317284 C41.310582,19.5231041 34.0724868,20.642328 34.0724868,20.642328 C17.9619048,22.8770723 0.110405644,30.7539683 0.110405644,30.7539683 L6.92063492,9.61657848 L0.11957672,3.08059965 C7.58553792,2.1037037 24.7428571,0.468077601 46.4992945,0.165784832 L46.4992945,0.117989418 C47.6751323,0.117989418 48.8417989,0.120811287 49.9948854,0.129453263 C51.1485009,0.120811287 52.3142857,0.117989418 53.4902998,0.117989418 L53.4902998,0.165784832 C75.2465608,0.468077601 92.4035273,2.10388007 99.8698413,3.08059965 L99.8698413,3.08059965 Z" id="Shape" fill="#B6B8BA"></path>
                    </g>
                    <path d="M94.9634921,4.21763668 C94.9271605,4.25908289 89.5881834,9.04197531 89.5881834,9.04197531 C91.2657848,14.2070547 93.2684303,20.5248677 94.9393298,25.7447972 C81.1024691,20.4088183 67.6250441,17.9329806 54.1899471,17.4603175 C51.3924162,17.3675485 48.5964727,17.3675485 45.79806,17.4603175 C32.3631393,17.9329806 18.8858907,20.4088183 5.04867725,25.7449735 C6.71922399,20.5250441 8.72275132,14.207231 10.3994709,9.04215168 C10.3895944,9.03633157 5.11111111,4.31499118 5.02469136,4.21781305 C19.4901235,2.48218695 32.105291,1.429806 47.1081129,1.32433862 C49.0320988,1.31040564 50.9559083,1.31093474 52.8798942,1.32433862 C67.8830688,1.42962963 80.4978836,2.48201058 94.9634921,4.21763668 L94.9634921,4.21763668 Z" id="Shape" fill="#2F4858"></path>
                    <g id="Letras" transform="translate(10.052910, 3.174603)" fill="#FFFFFF">
                        <path d="M7.95361552,1.75044092 C6.09223986,1.94373898 4.23421517,2.15502646 2.37971781,2.38430335 C2.92504409,2.84938272 3.48430335,3.29911817 4.05661376,3.7335097 C2.71393298,7.80970018 1.37178131,11.9022928 0.0315696649,16.010582 C2.84109347,15.2049383 5.64021164,14.4982363 8.43174603,13.8821869 C8.66419753,13.0444444 8.89753086,12.2070547 9.1303351,11.3696649 C7.65837743,11.6594356 6.18518519,11.9710758 4.70987654,12.3074074 C5.79029982,8.77795414 6.87160494,5.25837743 7.95361552,1.75044092 L7.95361552,1.75044092 Z" id="Shape"></path>
                        <path d="M9.24585538,13.7059965 C10.5273369,13.4312169 11.8067019,13.1747795 13.0857143,12.9380952 C14.0634921,8.95784832 15.0407407,4.98730159 16.0183422,1.02522046 C14.8902998,1.11093474 13.7627866,1.20352734 12.6373898,1.3026455 C11.5067019,5.42451499 10.3761905,9.55925926 9.24585538,13.7059965 L9.24585538,13.7059965 Z" id="Shape"></path>
                        <path d="M24.554321,0.49329806 C22.6428571,0.585714286 20.7333333,0.695590829 18.826455,0.823633157 C17.6726631,0.899470899 16.9871252,1.39982363 16.768254,2.31393298 C16.0555556,5.31887125 15.3419753,8.32839506 14.6285714,11.3430335 C14.4089947,12.2627866 14.9479718,12.6017637 16.2405644,12.3887125 C18.4026455,12.0379189 20.5608466,11.7379189 22.7153439,11.4858907 C24.0343915,11.3329806 24.7559083,10.8467372 24.8802469,10.00194 C25.1534392,8.17583774 25.4259259,6.34991182 25.6985891,4.52574956 C24.0465608,4.63597884 22.3945326,4.7664903 20.742328,4.91781305 C20.6035273,5.62486772 20.4647266,6.33262787 20.3261023,7.04074074 C21.3416226,6.93174603 22.3580247,6.83209877 23.3742504,6.74162257 C22.7857143,7.04444444 22.1920635,7.35308642 21.5950617,7.66684303 C21.4760141,8.31693122 21.3569665,8.96525573 21.2373898,9.61463845 C20.3504409,9.71781305 19.4627866,9.8292769 18.5751323,9.94832451 C19.0116402,7.83527337 19.4470899,5.72504409 19.8835979,3.61587302 C19.4698413,3.40335097 19.0599647,3.18906526 18.6550265,2.97319224 C19.940388,2.86366843 21.2255732,2.76455026 22.5109347,2.67566138 C22.4315697,3.11234568 22.35097,3.54902998 22.2703704,3.98694885 C23.4529101,3.89365079 24.6336861,3.81058201 25.8160494,3.73580247 C25.9183422,3.04938272 26.0213404,2.3638448 26.1234568,1.67689594 C26.2472663,0.835626102 25.7238095,0.437566138 24.554321,0.49329806 L24.554321,0.49329806 Z" id="Shape"></path>
                        <path d="M37.4467372,2.18271605 C38.361552,2.17442681 39.2765432,2.17054674 40.1918871,2.1712522 C40.1998236,4.94426808 40.2077601,7.71693122 40.2151675,10.4906526 C41.482716,10.492769 42.7499118,10.5111111 44.0178131,10.5453263 C43.9146384,8.0335097 43.8111111,5.52045855 43.7075838,3.00793651 C43.1751323,2.73174603 42.6472663,2.45873016 42.1236332,2.18765432 C42.6410935,2.19188713 43.1578483,2.1978836 43.6747795,2.20546737 C43.6744268,2.20352734 43.6744268,2.20070547 43.6744268,2.19876543 C44.589418,2.21216931 45.5040564,2.2303351 46.4186949,2.25396825 C46.3705467,1.5643739 46.3209877,0.874426808 46.2728395,0.184126984 C43.35097,0.12680776 40.4269841,0.109347443 37.5035273,0.131922399 C37.4843034,0.815696649 37.4656085,1.49911817 37.4467372,2.18271605 L37.4467372,2.18271605 Z" id="Shape"></path>
                        <path d="M51.3728395,6.4994709 C52.6712522,6.57918871 53.9696649,6.67407407 55.2680776,6.78236332 C55.1594356,6.08677249 55.0504409,5.39153439 54.9425044,4.69700176 C53.6710758,4.60634921 52.4010582,4.52786596 51.1301587,4.46014109 C51.0823633,4.05044092 51.0329806,3.64074074 50.9848325,3.2303351 C50.4366843,2.93474427 49.8934744,2.64197531 49.3537919,2.35291005 C49.8650794,2.37178131 50.3770723,2.39329806 50.8887125,2.41463845 C50.8883598,2.41269841 50.8883598,2.41075838 50.887478,2.40864198 C52.4294533,2.47583774 53.9726631,2.55679012 55.513933,2.65291005 C55.3940035,1.93015873 55.2744268,1.20776014 55.1546737,0.484656085 C52.5183422,0.358553792 49.8784832,0.265608466 47.237037,0.204938272 C47.5223986,3.70670194 47.8088183,7.20917108 48.0957672,10.712522 C51.0731922,10.8746032 54.0530864,11.126455 57.038448,11.4717813 C56.9181658,10.7477954 56.7982363,10.0229277 56.6779541,9.2994709 C55.0015873,9.12680776 53.326455,8.98059965 51.652381,8.85961199 C51.5594356,8.07283951 51.4657848,7.28606702 51.3728395,6.4994709 L51.3728395,6.4994709 Z" id="Shape"></path>
                        <path d="M63.5851852,1.00388007 C61.6744268,0.859964727 59.7604938,0.733862434 57.8442681,0.625573192 C56.7017637,0.561904762 56.2038801,0.96313933 56.3532628,1.82010582 C56.8481481,4.64532628 57.3426808,7.47336861 57.8388007,10.3040564 C57.987478,11.1631393 58.7067019,11.668254 59.9968254,11.8447972 C62.1544974,12.138448 64.315873,12.482716 66.480776,12.8797178 C67.8061728,13.1257496 68.3472663,12.7895944 68.1012346,11.8432099 C67.852381,10.8733686 67.6021164,9.90493827 67.352381,8.93686067 C66.1199295,8.74056437 64.8871252,8.55873016 63.6555556,8.39029982 C63.805291,9.04356261 63.9553792,9.69470899 64.1047619,10.3472663 C63.2160494,10.2121693 62.3273369,10.0846561 61.4389771,9.96472663 C61.0097002,7.89365079 60.5793651,5.82398589 60.1506173,3.75608466 C59.562963,3.41428571 58.9804233,3.07865961 58.4026455,2.74867725 C58.9234568,2.78659612 59.4451499,2.82698413 59.9659612,2.86843034 C60.7895944,2.93439153 61.6132275,3.0047619 62.4366843,3.07865961 L62.4382716,3.07865961 C62.4382716,3.07901235 62.4375661,3.07901235 62.4366843,3.07901235 C62.5821869,3.71446208 62.727866,4.35061728 62.8749559,4.98536155 C64.0624339,5.11340388 65.2504409,5.25167549 66.4391534,5.4 C66.1929453,4.44955908 65.9467372,3.49911817 65.7012346,2.54955908 C65.4569665,1.60811287 64.7514991,1.09047619 63.5851852,1.00388007 L63.5851852,1.00388007 Z" id="Shape"></path>
                        <path d="M77.4906526,2.38306878 C76.1846561,2.22063492 74.8768959,2.06843034 73.566843,1.92539683 C73.017284,1.864903 72.4666667,1.80652557 71.915873,1.74902998 C70.5647266,1.60917108 69.2116402,1.47830688 67.8564374,1.35626102 C66.7186949,1.25661376 66.2744268,1.68342152 66.5232804,2.62998236 C67.4777778,6.22610229 68.4324515,9.8303351 69.3867725,13.4430335 C70.6677249,13.7058201 71.9495591,13.9873016 73.2336861,14.2880071 C72.6994709,12.4396825 72.1640212,10.5941799 71.6296296,8.75132275 C72.0231041,8.82151675 72.4176367,8.89276896 72.8111111,8.96560847 C73.2825397,9.05326279 73.7529101,9.14179894 74.2255732,9.23421517 C74.7740741,9.34056437 75.3218695,9.45008818 75.8710758,9.56261023 C75.4213404,9.7617284 74.966843,9.95767196 74.5079365,10.1502646 C74.5075838,10.1493827 74.5056437,10.14903 74.5051146,10.1477954 C74.9968254,11.7493827 75.4867725,13.3539683 75.9784832,14.9599647 C77.2731922,15.2910053 78.5686067,15.6428571 79.8671958,16.0153439 C78.5255732,11.9049383 77.1834215,7.81058201 75.8395062,3.7329806 C75.8373898,3.72751323 75.8356261,3.72222222 75.833157,3.71552028 C76.3987654,3.28641975 76.9514991,2.84232804 77.4906526,2.38306878 L77.4906526,2.38306878 Z M73.4604938,6.74426808 C72.6167549,6.60529101 71.773545,6.47160494 70.9305115,6.34338624 C70.7763668,5.81499118 70.6234568,5.28783069 70.4696649,4.75978836 C69.9234568,4.41516755 69.3816578,4.07760141 68.8433862,3.74603175 C69.303351,3.79982363 69.7634921,3.85555556 70.2231041,3.91269841 C71.0453263,4.01463845 71.8661376,4.12116402 72.6878307,4.23174603 C72.6890653,4.23262787 72.6890653,4.23262787 72.6899471,4.23262787 C72.6890653,4.2329806 72.6890653,4.2329806 72.6881834,4.2329806 C72.9460317,5.06948854 73.2035273,5.90740741 73.4604938,6.74426808 L73.4604938,6.74426808 Z" id="Shape"></path>
                        <path d="M34.8141093,0.163315697 C32.8922399,0.194179894 30.9708995,0.241622575 29.0516755,0.307583774 C27.9061728,0.34638448 27.2758377,0.788888889 27.1582011,1.62627866 C26.7178131,4.8010582 26.2765432,7.97760141 25.8352734,11.1566138 C27.1056437,11.0359788 28.3749559,10.9322751 29.6453263,10.8447972 C29.8015873,9.31746032 29.9589065,7.79047619 30.1148148,6.26296296 C30.505291,6.24197531 30.8962963,6.22292769 31.2864198,6.20564374 C31.7569665,6.18395062 32.2280423,6.16349206 32.7001764,6.14479718 C33.243739,6.12416226 33.7871252,6.10599647 34.3306878,6.08941799 C34.3343915,6.08659612 32.6777778,6.85167549 32.6446208,6.87001764 C32.5485009,8.14056437 32.4511464,9.41146384 32.354321,10.6820106 C33.6299824,10.6171076 34.9056437,10.5687831 36.180776,10.537037 C36.2970018,7.47513228 36.4135802,4.41305115 36.5296296,1.35044092 C36.5585538,0.543915344 35.9867725,0.145149912 34.8141093,0.163315697 L34.8141093,0.163315697 Z M32.8506173,4.1686067 C32.0067019,4.19664903 31.1638448,4.22910053 30.3199295,4.2670194 C30.3650794,3.82962963 30.4102293,3.39206349 30.4544974,2.95343915 C30.4541446,2.95343915 30.452381,2.95414462 30.4504409,2.95467372 C30.0089947,2.73880071 29.5705467,2.52222222 29.1358025,2.30529101 C29.5998236,2.28589065 30.0631393,2.26772487 30.5271605,2.24991182 C31.3507937,2.21922399 32.1742504,2.19259259 32.9982363,2.17054674 L33.0022928,2.17054674 C32.9520282,2.8366843 32.9010582,3.5021164 32.8506173,4.1686067 L32.8506173,4.1686067 Z" id="Shape"></path>
                    </g>
                </g>
            </g>
        </g>
    </g>
</svg>